<svg version="1.1" id="Layer_1" xmlns="http://www.w3.org/2000/svg" xmlns:xlink="http://www.w3.org/1999/xlink" x="0px" y="0px"
	 width="100%" viewBox="0 0 667 578" enable-background="new 0 0 667 578" xml:space="preserve">
<path fill="#E8D01D" opacity="1.000000" stroke="none" 
	d="
M339.000000,579.000000 
	C227.333359,579.000000 116.166687,578.979736 5.000159,579.095337 
	C1.576301,579.098877 0.903573,578.423767 0.905491,575.000000 
	C1.011891,385.000092 1.011898,195.000122 0.905520,5.000216 
	C0.903604,1.576945 1.575980,0.904008 4.999880,0.905639 
	C224.666458,1.010298 444.333069,1.010289 663.999634,0.905702 
	C667.422546,0.904072 668.096497,1.575535 668.094543,4.999769 
	C667.988098,194.999695 667.988098,384.999664 668.094421,574.999573 
	C668.096375,578.422424 667.425049,579.099121 664.000244,579.095459 
	C555.833557,578.979187 447.666779,579.000000 339.000000,579.000000 
z"/>
<path fill="#F1E398" opacity="1.000000" stroke="none" 
	d="
M374.507812,277.505432 
	C368.135468,282.738403 361.577209,287.031494 353.991577,289.353546 
	C349.906311,290.604095 348.593842,292.919159 348.890961,297.041779 
	C349.225525,301.683289 349.065552,306.371552 348.922668,311.033386 
	C348.760986,316.308472 346.391632,318.913879 341.964417,319.049408 
	C337.587463,319.183441 334.869171,316.649109 334.479980,311.491180 
	C334.167267,307.346893 334.172852,303.157593 334.360901,299.002899 
	C334.523315,295.414185 333.373169,293.914246 329.548584,294.027008 
	C318.102020,294.364563 319.833527,292.629333 319.633026,303.790894 
	C319.579285,306.783905 319.674652,309.813354 319.239014,312.757629 
	C318.620178,316.939911 316.085846,319.351593 311.655121,319.009583 
	C307.277496,318.671631 305.101685,316.085419 305.054810,311.751495 
	C304.995331,306.252808 304.854950,300.746948 305.065643,295.256287 
	C305.200165,291.750244 303.881348,289.894012 300.647491,288.440002 
	C277.992676,278.253937 263.623383,261.090576 258.804504,236.625168 
	C252.650116,205.379333 268.491302,173.064041 297.880981,159.904999 
	C303.571136,157.357300 305.851624,154.420959 305.143036,148.371964 
	C304.661621,144.262558 304.988251,140.049088 305.076874,135.884781 
	C305.181488,130.969437 307.446716,128.317551 311.605896,128.016373 
	C316.005066,127.697823 319.019653,130.209763 319.451843,135.190598 
	C319.825226,139.493515 319.863159,143.861191 319.603119,148.173309 
	C319.347382,152.413757 321.250977,153.505356 324.976959,152.817398 
	C325.468140,152.726700 325.963867,152.651321 326.460785,152.602219 
	C334.310669,151.826385 334.297882,151.827606 334.318512,143.562347 
	C334.325592,140.731384 334.202911,137.877045 334.514313,135.075043 
	C335.046478,130.285965 337.722748,127.892723 341.953003,128.009308 
	C346.198639,128.126312 348.740997,130.686508 348.901367,135.506424 
	C349.084167,140.999908 349.067108,146.506165 348.929230,152.001663 
	C348.859833,154.767548 349.875824,156.321976 352.539429,157.125290 
	C361.660767,159.876144 369.282227,165.203445 376.412231,171.325073 
	C380.848450,175.133850 381.728210,179.596039 378.762878,183.033218 
	C375.889008,186.364365 371.531158,186.530151 367.257355,182.710281 
	C359.371979,175.662445 350.499420,170.930389 340.124634,168.590744 
	C314.917389,162.906204 287.831238,176.108063 277.496979,199.435715 
	C266.078705,225.210312 273.611572,253.993622 295.774750,269.275726 
	C317.845703,284.494232 344.845093,283.198425 365.099792,265.948517 
	C371.062073,260.870758 375.342621,260.205536 378.652161,263.842255 
	C382.140656,267.675659 381.016968,271.562744 374.507812,277.505432 
z"/>
<path fill="#F1E398" opacity="1.000000" stroke="none" 
	d="
M258.750183,422.005310 
	C257.935791,439.825745 245.162170,447.834595 229.664169,448.678192 
	C212.232407,449.626984 194.716003,448.962646 177.238434,449.169586 
	C172.995605,449.219849 173.387726,446.542511 173.387527,443.855011 
	C173.385712,420.214935 173.386398,396.574829 173.386749,372.934753 
	C173.386826,367.940369 173.509384,362.942047 173.347366,357.952972 
	C173.238266,354.592560 174.390366,353.140350 177.936874,353.223511 
	C194.069901,353.602020 210.224869,352.591431 226.344254,354.022308 
	C230.520935,354.393036 234.551208,355.315857 238.469620,356.783356 
	C247.785675,360.272430 252.721893,366.860352 253.005325,376.199646 
	C253.327332,386.811035 249.395660,393.176636 239.901123,397.485962 
	C239.224426,397.793121 238.251358,397.797760 237.990204,399.336914 
	C250.148026,401.719788 258.012512,408.413635 258.750183,422.005310 
z"/>
<path fill="#F1E398" opacity="1.000000" stroke="none" 
	d="
M439.298492,425.003204 
	C438.374969,402.862091 439.345001,380.724945 438.915619,358.603455 
	C438.835541,354.476837 440.060608,353.152618 444.246399,353.176453 
	C456.959351,353.248840 456.958282,353.083984 456.957428,365.648712 
	C456.955627,391.638489 456.853638,417.629089 457.054199,443.617310 
	C457.088715,448.089417 455.708313,449.541840 451.362152,449.180878 
	C445.408691,448.686462 438.601959,451.063812 433.666626,448.263580 
	C428.903015,445.560730 427.357788,438.750031 424.474518,433.705200 
	C414.557709,416.354034 404.744690,398.943573 394.877502,381.563995 
	C394.327545,380.595367 393.645691,379.701569 392.486938,377.967316 
	C391.584930,381.779724 392.815491,384.612488 392.814850,387.445892 
	C392.810425,406.604584 392.836090,425.763428 392.942749,444.921753 
	C392.958679,447.785553 392.142029,449.030090 389.006470,449.184967 
	C374.986450,449.877563 374.992706,449.970795 374.993469,436.067413 
	C374.994812,410.244232 375.076202,384.420502 374.910248,358.598389 
	C374.883728,354.473419 376.222046,353.668457 380.223145,353.082703 
	C393.028473,351.207947 400.650269,355.572845 406.472839,367.742798 
	C415.291534,386.175049 426.383820,403.519989 436.530090,421.315552 
	C437.262878,422.600769 438.158295,423.793274 439.298492,425.003204 
z"/>
<path fill="#F1E398" opacity="1.000000" stroke="none" 
	d="
M534.721985,380.721832 
	C531.396545,384.024200 528.513184,387.307465 525.194092,390.066620 
	C521.882812,392.819336 521.915710,394.931030 524.632263,398.246948 
	C537.090515,413.453888 549.303162,428.862213 561.573975,444.222198 
	C562.572632,445.472229 564.624146,446.676788 563.900330,448.292664 
	C563.162964,449.938782 560.911865,448.828613 559.360962,449.133331 
	C546.349976,451.689941 537.578125,446.553497 530.642944,435.373474 
	C524.792847,425.942657 517.029785,417.709564 510.287231,408.814667 
	C508.199493,406.060486 506.780151,406.194733 503.848145,407.968018 
	C497.415802,411.858307 494.844482,416.851074 495.653473,424.423798 
	C496.357574,431.014740 495.686462,437.743317 495.844788,444.405792 
	C495.922913,447.694275 495.048340,449.396729 491.375305,449.175293 
	C487.389984,448.935059 483.373138,448.984955 479.381226,449.161407 
	C476.279053,449.298492 475.320007,447.934174 475.325195,445.019287 
	C475.377014,415.854462 475.386597,386.689484 475.319000,357.524719 
	C475.311310,354.213226 476.715851,353.113251 479.844330,353.235046 
	C483.671600,353.384033 487.519623,353.445435 491.339172,353.217529 
	C494.941193,353.002594 495.892303,354.571014 495.854004,357.934998 
	C495.713715,370.246246 495.798462,382.560089 495.798462,394.920166 
	C498.454559,395.201599 499.250549,393.209595 500.437134,392.030151 
	C510.365601,382.161224 520.692444,372.633057 529.923706,362.143646 
	C536.145630,355.073761 542.889832,351.817780 552.088196,353.229004 
	C554.815369,353.647430 557.683533,352.846466 561.023499,353.954590 
	C552.095581,363.042908 543.534363,371.757965 534.721985,380.721832 
z"/>
<path fill="#F1E398" opacity="1.000000" stroke="none" 
	d="
M336.811340,434.287415 
	C332.648560,423.297150 335.797791,425.058289 324.079315,424.908112 
	C316.421265,424.809937 308.758759,424.996399 301.102600,424.841125 
	C298.119141,424.780640 296.598785,425.847504 295.704376,428.720703 
	C293.974274,434.278290 291.910461,439.732605 289.954620,445.218903 
	C289.515015,446.452087 289.334900,448.318787 288.053894,448.554596 
	C282.140900,449.643005 276.102295,449.544220 270.220123,448.661285 
	C268.000214,448.328033 269.747711,445.751984 270.224487,444.420868 
	C275.387299,430.007721 280.675995,415.639648 285.925629,401.257568 
	C291.232300,386.719330 296.629517,372.212921 301.761993,357.613434 
	C302.879791,354.433746 304.376587,353.037170 307.821777,353.204620 
	C312.971405,353.454895 318.144287,353.363647 323.302917,353.238190 
	C326.036530,353.171692 327.458130,354.197235 328.412445,356.843658 
	C338.912140,385.961548 349.492828,415.050415 360.157593,444.108246 
	C361.517548,447.813599 360.884186,449.116272 356.710327,449.194244 
	C341.962311,449.469635 341.964508,449.587219 336.811340,434.287415 
z"/>
<path fill="#F1E398" opacity="1.000000" stroke="none" 
	d="
M138.757736,365.667084 
	C143.967636,350.653381 139.806778,353.577606 155.254349,353.292175 
	C164.983109,353.112427 163.524338,353.332642 160.632843,361.216980 
	C150.601013,388.571167 140.440475,415.878845 130.578903,443.294128 
	C128.972397,447.760193 126.815353,449.364288 121.990837,449.250427 
	C107.822052,448.916046 107.805016,449.147003 102.822159,435.724792 
	C93.377235,410.283264 83.945267,384.836945 74.512314,359.390961 
	C72.300850,353.425415 72.387657,353.306580 78.677376,353.265198 
	C93.271286,353.169098 93.331642,353.149994 97.748573,367.082031 
	C103.986977,386.759369 110.111900,406.472717 116.340866,426.153076 
	C116.706589,427.308563 116.544174,428.862640 118.320831,429.606903 
	C125.109924,408.365479 131.873230,387.204712 138.757736,365.667084 
z"/>
<path fill="#E8D01E" opacity="1.000000" stroke="none" 
	d="
M234.398743,430.414185 
	C230.993149,433.164093 227.407425,434.157104 223.446838,434.153625 
	C215.139297,434.146362 206.829437,434.122742 198.525177,434.310913 
	C195.145264,434.387482 193.726410,433.271606 193.838608,429.740448 
	C194.039047,423.432526 193.897369,417.113770 193.898300,410.799530 
	C193.898590,408.875488 193.988876,406.985657 196.650696,407.053558 
	C206.765427,407.311462 216.947495,406.018311 226.986038,407.912170 
	C238.561447,410.095978 242.210449,420.881653 234.398743,430.414185 
z"/>
<path fill="#E8D01E" opacity="1.000000" stroke="none" 
	d="
M232.488281,376.840179 
	C233.536896,386.296661 229.509338,391.475800 220.590363,391.880188 
	C212.940094,392.227112 205.261337,391.898254 197.597733,392.023773 
	C194.725967,392.070770 193.805695,390.837311 193.864655,388.132080 
	C193.977203,382.968475 193.968155,377.799469 193.872726,372.635254 
	C193.822479,369.916229 194.869919,368.673248 197.669983,368.723358 
	C205.499298,368.863495 213.341415,368.667297 221.157288,369.043701 
	C226.135880,369.283447 230.784348,370.743805 232.488281,376.840179 
z"/>
<path fill="#E8D121" opacity="1.000000" stroke="none" 
	d="
M321.215210,386.751892 
	C323.455566,393.241364 325.476837,399.394287 327.704102,405.471741 
	C328.805908,408.478241 328.743469,410.080872 324.815979,409.947632 
	C318.345886,409.728119 311.863129,409.885254 305.385712,409.878479 
	C303.336945,409.876343 301.601288,409.642487 302.566711,406.798157 
	C306.713165,394.582306 310.823639,382.354218 315.324127,369.013306 
	C317.486023,375.536621 319.283508,380.960449 321.215210,386.751892 
z"/>
</svg>